<?xml version="1.0" encoding="UTF-8"?>
<svg id="Layer_1" data-name="Layer 1" xmlns="http://www.w3.org/2000/svg" viewBox="0 0 134.51 126.63">
  <defs>
    <style>
      .cls-1 {
        fill: #231f20;
      }
    </style>
  </defs>
  <path class="cls-1" d="M91.93,120c-3.76,0-7.48-.59-11.06-1.74-5.52-1.78-11.22-2.69-16.92-2.69s-11.39,.9-16.92,2.68c-3.58,1.16-7.31,1.75-11.07,1.75-12.76,0-24.67-6.87-31.06-17.92C-3.67,87.29-.78,68.97,11.93,57.52c8.62-7.77,14.47-17.86,16.9-29.19C32.41,11.65,46.85,0,63.94,0s31.53,11.65,35.11,28.34c2.43,11.33,8.27,21.42,16.9,29.19,12.71,11.44,15.6,29.77,7.04,44.56-6.4,11.05-18.3,17.91-31.06,17.91Zm-27.99-4.57c5.72,0,11.43,.91,16.97,2.69,3.57,1.15,7.28,1.74,11.02,1.74,12.71,0,24.57-6.84,30.94-17.84,8.53-14.74,5.65-32.99-7.01-44.39-8.65-7.79-14.51-17.91-16.94-29.26C95.35,11.75,80.97,.14,63.94,.14S32.53,11.75,28.97,28.37c-2.44,11.36-8.3,21.48-16.94,29.26C-.64,69.03-3.52,87.28,5.01,102.01c6.37,11.01,18.23,17.85,30.94,17.85,3.75,0,7.46-.59,11.03-1.74,5.54-1.78,11.25-2.69,16.96-2.69Z"/>
  <path class="cls-1" d="M98.56,126.63c-3.76,0-7.48-.59-11.06-1.74-5.52-1.78-11.22-2.69-16.92-2.69s-11.39,.9-16.92,2.68c-3.58,1.16-7.3,1.75-11.07,1.75-12.76,0-24.67-6.87-31.06-17.92-8.57-14.79-5.67-33.12,7.04-44.56,8.62-7.77,14.47-17.86,16.9-29.19,3.58-16.68,18.02-28.34,35.11-28.34s31.53,11.65,35.11,28.34c2.43,11.33,8.27,21.42,16.9,29.19,12.71,11.44,15.6,29.77,7.04,44.56-6.4,11.05-18.3,17.91-31.06,17.91Zm-27.99-4.57c5.72,0,11.43,.91,16.97,2.69,3.57,1.15,7.28,1.73,11.02,1.73,12.71,0,24.57-6.84,30.94-17.84,8.53-14.74,5.65-32.99-7.01-44.39-8.65-7.79-14.51-17.91-16.94-29.26-3.57-16.62-17.95-28.23-34.97-28.23s-31.41,11.61-34.97,28.23c-2.44,11.36-8.3,21.48-16.94,29.26-12.66,11.4-15.55,29.65-7.01,44.39,6.37,11.01,18.23,17.85,30.94,17.85,3.75,0,7.46-.58,11.03-1.74,5.54-1.78,11.25-2.69,16.96-2.69Z"/>
  <path class="cls-1" d="M97.04,105.12c-1.67,0-3.33-.26-4.92-.78-8.46-2.73-17.2-4.11-25.97-4.11s-17.5,1.38-25.96,4.11c-1.61,.52-3.26,.78-4.94,.78-5.65,0-10.92-3.04-13.75-7.93-3.78-6.52-2.5-14.61,3.11-19.66,13.26-11.94,22.24-27.46,25.98-44.87,1.58-7.38,7.98-12.53,15.55-12.53s13.97,5.15,15.55,12.53c3.74,17.42,12.72,32.94,25.98,44.87,5.61,5.05,6.89,13.14,3.11,19.66-2.83,4.89-8.1,7.93-13.75,7.93Z"/>
</svg>