<?xml version="1.0" encoding="UTF-8"?>
<svg id="Layer_1" data-name="Layer 1" xmlns="http://www.w3.org/2000/svg" viewBox="0 0 134.51 126.63">
  <path d="M125.99,63.27c.02,32.39-26.34,58.78-58.72,58.79-32.37,0-58.75-26.38-58.74-58.76,0-32.38,26.4-58.75,58.78-58.73,32.33,.02,58.66,26.37,58.68,58.7Zm-7.82-.01c-.04-28.15-22.77-50.85-50.91-50.86-28.17,0-50.97,22.83-50.91,50.99,.06,28.15,22.8,50.87,50.91,50.86,28.18-.01,50.95-22.81,50.9-50.98Z"/>
  <path d="M63.35,39.22c0-1.15-.02-2.2,0-3.26,.06-2.27,1.8-3.99,3.97-3.96,2.14,.03,3.79,1.72,3.85,3.94,.03,1.06,0,2.12,0,3.17,1.46,.51,2.92,.88,4.26,1.5,4.65,2.14,7.4,5.64,7.47,10.92,.03,2.15-1.62,3.86-3.7,3.95-2.16,.1-3.99-1.46-4.09-3.67-.09-1.95-1.04-3.25-2.72-4.01-3.41-1.55-6.89-1.6-10.28,.03-3.2,1.54-3.81,6.07-1,8.26,1.59,1.25,3.6,2.02,5.49,2.82,2.17,.92,4.47,1.53,6.64,2.44,6.45,2.7,9.8,7.58,9.65,14.02-.1,4.41-2.17,7.73-5.96,9.87-1.75,.99-3.71,1.6-5.77,2.46,0,.8,.01,1.86,0,2.91-.04,2.34-1.64,4.02-3.84,4.05-2.27,.03-3.94-1.66-3.98-4.04-.02-1.05,0-2.11,0-2.84-2.28-1.03-4.45-1.78-6.37-2.94-3.43-2.09-5.19-5.31-5.35-9.35-.1-2.43,1.43-4.26,3.63-4.38,2.35-.13,4.03,1.43,4.18,3.94,.09,1.56,.8,2.77,2.14,3.48,3.76,2,7.61,2.06,11.33,.01,2.79-1.53,3.09-5.9,.53-7.97-1.39-1.12-3.12-1.89-4.8-2.59-3.04-1.27-6.25-2.15-9.19-3.6-6.14-3.04-9.14-9.75-7.38-16.08,1.28-4.62,4.72-7.05,9.03-8.48,.69-.23,1.41-.39,2.23-.61Z"/>
</svg>