<?xml version="1.0" encoding="UTF-8"?>
<svg id="Layer_1" data-name="Layer 1" xmlns="http://www.w3.org/2000/svg" viewBox="0 0 134.51 126.63">
  <path d="M108.17,70.4c2.79,0,5.39,0,8,0,2.07,0,2.61,.55,2.62,2.64,0,1.78-.04,3.57,.01,5.35,.04,1.33-.48,2.09-1.78,2.48-2.74,.83-5.46,1.74-8.17,2.69-.44,.16-.89,.64-1.09,1.08-1.08,2.46-2.12,4.95-3.09,7.45-.19,.49-.2,1.2,.02,1.66,1.22,2.55,2.5,5.07,3.84,7.56,.66,1.24,.47,2.17-.52,3.14-2.89,2.83-5.76,5.69-8.59,8.59-.97,.99-1.9,1.15-3.13,.49-2.49-1.34-5.01-2.61-7.56-3.83-.45-.22-1.16-.19-1.64,0-2.47,.96-4.91,1.97-7.33,3.05-.51,.23-1.06,.74-1.24,1.25-.95,2.66-1.81,5.35-2.64,8.05-.39,1.28-1.16,1.83-2.49,1.82-4.09-.03-8.18-.03-12.27,0-1.32,0-2.1-.53-2.49-1.81-.83-2.7-1.69-5.39-2.64-8.05-.18-.51-.73-1.04-1.23-1.26-2.42-1.08-4.86-2.08-7.33-3.04-.48-.19-1.19-.22-1.64,0-2.59,1.24-5.14,2.55-7.67,3.89-1.13,.6-2.02,.46-2.92-.45-2.9-2.95-5.82-5.87-8.77-8.77-.96-.94-1.06-1.86-.44-3.03,1.31-2.45,2.52-4.96,3.82-7.42,.36-.68,.36-1.21,.03-1.93-1.07-2.37-2.09-4.77-3-7.21-.28-.76-.68-1.1-1.39-1.33-2.65-.83-5.28-1.75-7.94-2.55-1.3-.39-1.83-1.14-1.8-2.47,.05-1.83,0-3.66,.01-5.48,.01-1.96,.58-2.51,2.6-2.52,2.13,0,4.26,0,6.59,0,0-.54,0-1,0-1.46,0-5.75,.02-11.49-.02-17.24,0-1.04,.33-1.81,1.05-2.54,4.89-4.96,9.74-9.95,14.61-14.93,1.43-1.47,2.22-1.43,3.71,.02,1.56,1.51,3.17,2.97,4.81,4.5,.01-.31,.05-.74,.05-1.18,0-5.14,.04-10.27-.02-15.41-.02-1.42,.5-2.22,1.82-2.78,6.33-2.65,12.62-5.4,18.95-8.04,.98-.41,1.3-.91,1.24-1.93-.09-1.52-.04-3.05-.01-4.57,.02-1.23,.71-2.01,1.73-2.05,1.06-.05,1.87,.76,1.91,2.03,.05,1.52,.09,3.05,0,4.57-.07,1.17,.31,1.87,1.33,2.51,3.96,2.45,7.83,5.03,11.77,7.5,1.09,.68,1.53,1.52,1.51,2.79-.05,3.7-.02,7.4-.02,11.1,0,.47,0,.94,0,1.6,.57,0,1.03,0,1.49,0,3.92,0,7.83,0,11.75,0,3.64,0,5.57,1.92,5.58,5.55,.01,9.4,0,18.8,0,28.21,0,.52,0,1.03,0,1.75Zm6.83,3.83h-17.65c-1.64,16.12-13.69,27.69-29.4,28.13-15.95,.45-29.64-11.81-30.85-28.21H19.4c0,.79,.06,1.53-.02,2.25-.1,.95,.27,1.35,1.19,1.62,2.5,.73,4.95,1.63,7.44,2.39,1.07,.33,1.57,.98,1.96,2.02,1.11,2.96,2.3,5.9,3.63,8.77,.55,1.19,.63,2.14,0,3.3-1.38,2.56-2.65,5.18-4,7.83,2.4,2.4,4.75,4.78,7.16,7.1,.22,.22,.89,.2,1.22,.04,2.38-1.16,4.76-2.34,7.09-3.6,1.11-.61,2.03-.52,3.18,0,2.87,1.32,5.8,2.52,8.77,3.63,1.09,.41,1.77,.95,2.11,2.06,.76,2.49,1.62,4.96,2.37,7.45,.25,.83,.6,1.18,1.53,1.16,2.83-.07,5.66-.06,8.49,0,.86,.02,1.22-.3,1.46-1.08,.77-2.53,1.64-5.04,2.41-7.58,.32-1.06,.98-1.6,2.01-1.99,3.04-1.16,6.05-2.39,9.01-3.72,1.01-.46,1.84-.56,2.82-.04,2.38,1.26,4.78,2.48,7.2,3.67,.35,.17,1.02,.25,1.23,.05,2.44-2.35,4.81-4.76,7.22-7.18-1.4-2.74-2.74-5.42-4.13-8.08-.49-.93-.45-1.75-.02-2.72,1.35-3.05,2.62-6.14,3.84-9.24,.35-.88,.77-1.49,1.71-1.78,2.03-.62,4.05-1.31,6.07-1.98q2.98-.98,2.7-4.11s-.03-.08-.06-.17Zm-74.04-.09c.46,12,10.99,24.79,26.65,24.55,16.14-.24,25.71-13.77,25.9-24.55H40.96Zm9.52-3.82h5.63c.06-.19,.12-.31,.12-.43,0-5.83,.02-11.67-.01-17.5,0-.41-.29-.9-.59-1.22-4.27-4.41-8.56-8.8-12.85-13.18-.12-.12-.27-.19-.45-.31-4.47,4.57-8.92,9.1-13.33,13.68-.3,.31-.4,.94-.4,1.42-.03,5.49-.02,10.97-.01,16.46,0,.37,.05,.75,.07,1.09h5.68c0-3.11,0-6.15,0-9.19,0-2.85,1.57-4.42,4.45-4.45,2.31-.02,4.61-.01,6.92,0,3.27,.01,4.76,1.52,4.77,4.81,0,2.91,0,5.82,0,8.83Zm38.94,0h14.96c.04-.32,.11-.61,.11-.91,0-9.71,.01-19.41,0-29.12,0-1.39-.37-1.72-1.84-1.73-4.05-.01-8.09,0-12.14,0-.34,0-.68,.05-1.09,.09v31.66Zm-18.33-43.8c-.28,0-.42-.04-.52,0-5.71,2.43-11.42,4.86-17.12,7.32-.28,.12-.61,.54-.62,.83-.05,2.25-.03,4.51-.03,6.75,.2,.02,.3,.06,.37,.03,5.75-2.45,11.5-4.9,17.24-7.38,.29-.12,.64-.53,.65-.81,.05-2.24,.03-4.49,.03-6.75Zm0-11.73c-6.1,2.6-11.92,5.07-17.73,7.57-.23,.1-.52,.41-.53,.63-.04,2.31-.02,4.62-.02,7.12,6.07-2.59,11.88-5.08,17.69-7.59,.25-.11,.55-.48,.56-.74,.04-2.25,.03-4.49,.03-7Zm-16.56,30.11c1.92,1.76,3.68,3.37,5.6,5.13,2.17-.92,4.61-2.21,7.2-2.99,3.03-.92,4.44-2.51,3.8-5.75-.21-1.05-.03-2.18-.03-3.47-5.61,2.4-10.94,4.68-16.57,7.08Zm-16.46,15.47v9.96h8.73c0-3.14,.01-6.22-.03-9.3,0-.22-.39-.63-.6-.63-2.68-.04-5.36-.03-8.1-.03Zm33.02-11.02c-3.7,1.58-7.21,3.07-10.7,4.58-.2,.09-.45,.36-.45,.55-.03,2.32-.02,4.64-.02,7.17,3.7-1.59,7.17-3.06,10.63-4.58,.25-.11,.52-.5,.52-.77,.04-2.24,.02-4.49,.02-6.95Zm-11.18,20.95h11.08v-9.4c-3.6,1.54-7.08,3.01-10.53,4.53-.26,.12-.52,.57-.53,.88-.06,1.3-.02,2.6-.02,3.99Zm25.73-29.29c0-2.42,.03-4.58-.03-6.74,0-.29-.4-.64-.7-.84-1.56-1.04-3.14-2.04-4.71-3.05-1.74-1.12-3.48-2.23-5.44-3.49,0,2.24-.05,4.23,.04,6.21,.02,.49,.38,1.15,.79,1.42,2.59,1.75,5.24,3.42,7.88,5.11,.64,.41,1.3,.81,2.17,1.36Zm.02-11.48c0-2.21-.04-4.11,.02-6,.02-.83-.24-1.34-.96-1.79-2.98-1.86-5.92-3.79-8.88-5.68-.3-.19-.63-.34-1.08-.59,0,2.29-.02,4.37,.02,6.45,0,.32,.25,.75,.52,.93,3.33,2.18,6.69,4.33,10.35,6.68Zm-10.9,8.88c0,2.27-.06,4.23,.04,6.18,.03,.53,.43,1.21,.87,1.51,2.92,1.96,5.9,3.84,8.86,5.74,.3,.19,.63,.34,1.12,.61,0-2.33,.02-4.41-.02-6.49,0-.29-.22-.69-.47-.84-3.37-2.2-6.77-4.36-10.41-6.7Zm10.9,25.67c0-2.25-.03-4.16,.02-6.06,.02-.78-.24-1.26-.91-1.68-3.02-1.89-6-3.84-9-5.76-.27-.17-.58-.3-1.01-.51,0,1.82,.11,3.47-.03,5.11-.13,1.45,.42,2.25,1.64,2.99,3.04,1.82,5.99,3.8,9.29,5.93Zm-10.81-2.58v8.79h11c-.24-.81-.23-1.78-.67-2.08-3.33-2.27-6.75-4.41-10.33-6.71Z"/>
  <path d="M23.21,26.68c0,3.36,0,6.53,0,9.69,0,2.01-.55,2.89-1.82,2.89-1.26,0-1.85-.91-1.85-2.88,0-3.57,0-7.13,0-10.7,0-2.13,.51-2.65,2.58-2.66,3.78,0,7.56,0,11.35,0,1.51,0,2.36,.68,2.35,1.82-.02,1.15-.87,1.82-2.38,1.83-3.34,.01-6.69,0-10.23,0Z"/>
  <path d="M111.3,26.68c-3.36,0-6.48,0-9.61,0-.43,0-.88,.03-1.3-.03-1.04-.15-1.65-.78-1.69-1.83-.04-.98,.75-1.76,1.85-1.78,2.56-.04,5.13-.02,7.69-.02,1.57,0,3.13-.02,4.7,0,1.29,.02,1.99,.62,2.01,1.89,.05,4.13,.04,8.26,0,12.39-.01,1.2-.83,1.96-1.86,1.94-1.03-.02-1.76-.77-1.77-2-.03-3-.02-6-.02-9,0-.47,0-.94,0-1.57Z"/>
</svg>